<?xml version="1.0" standalone="no"?>
<!DOCTYPE svg PUBLIC "-//W3C//DTD SVG 20010904//EN"
 "http://www.w3.org/TR/2001/REC-SVG-20010904/DTD/svg10.dtd">
<svg version="1.0" xmlns="http://www.w3.org/2000/svg"
 width="3000.000000pt" height="2000.000000pt" viewBox="0 0 3000.000000 2000.000000"
 preserveAspectRatio="xMidYMid meet">

<g transform="translate(0.000000,2000.000000) scale(0.100000,-0.100000)"
fill="#000000" stroke="none">
<path d="M7516 13749 c-3 -19 -10 -81 -16 -139 -5 -58 -17 -161 -25 -230 -14
-116 -20 -170 -45 -400 -6 -47 -16 -139 -24 -205 -8 -66 -17 -147 -21 -180 -3
-33 -8 -76 -10 -95 -8 -64 -36 -314 -45 -395 -5 -44 -16 -143 -24 -220 -9 -77
-18 -163 -22 -192 -6 -54 -11 -61 -57 -81 -22 -9 -28 -9 -32 1 -2 6 -11 39
-21 72 -9 33 -27 94 -39 135 -13 41 -33 109 -44 150 -12 41 -28 95 -36 120 -8
25 -21 70 -29 100 -8 30 -28 102 -45 160 -17 58 -36 123 -42 145 -6 22 -15 51
-19 65 -4 14 -17 57 -28 95 -11 39 -34 117 -51 175 -17 58 -36 121 -41 140
-10 37 -33 114 -70 240 -12 41 -26 89 -30 105 -31 110 -39 138 -43 141 -2 2
-120 -21 -263 -51 -142 -30 -302 -64 -354 -75 -163 -35 -155 -31 -152 -76 2
-21 19 -181 38 -354 20 -173 39 -353 44 -400 9 -92 34 -315 50 -450 5 -47 14
-130 20 -185 6 -55 15 -136 20 -180 5 -44 17 -147 25 -230 9 -82 18 -166 20
-185 19 -157 18 -178 -3 -189 -38 -20 -49 -12 -82 62 -19 39 -51 110 -73 157
-22 47 -53 114 -69 150 -38 83 -82 177 -147 313 -28 59 -51 109 -51 112 0 3
-23 53 -51 112 -89 188 -165 351 -207 443 -11 25 -43 94 -71 153 -28 60 -51
110 -51 112 0 2 -23 52 -51 110 -41 86 -54 105 -67 99 -10 -4 -111 -42 -227
-86 -115 -43 -224 -86 -242 -93 -17 -8 -34 -15 -39 -15 -6 0 -92 -32 -191 -70
l-22 -9 26 -93 c14 -51 29 -106 33 -123 5 -16 23 -84 40 -150 18 -66 38 -142
45 -170 7 -27 25 -93 40 -145 14 -52 32 -120 40 -150 7 -30 27 -104 43 -165
16 -60 46 -173 66 -250 35 -130 61 -226 146 -540 55 -202 88 -333 129 -510 38
-161 54 -232 116 -520 14 -66 32 -150 40 -187 8 -38 22 -101 31 -140 8 -40 24
-111 34 -158 11 -47 35 -159 55 -250 19 -91 49 -226 65 -300 17 -75 30 -139
30 -143 0 -4 814 -7 1809 -7 l1809 0 6 38 c5 30 115 1125 156 1547 6 55 17
168 25 250 26 246 53 520 70 690 18 178 26 218 99 460 9 28 24 82 35 120 11
39 59 201 106 360 109 370 115 388 119 400 1 6 6 24 10 40 4 17 14 50 22 75
18 58 77 257 99 335 23 79 47 161 79 265 31 101 31 106 9 115 -10 3 -101 38
-203 76 -181 68 -257 96 -332 125 -21 8 -57 21 -80 30 -24 9 -58 22 -75 30
l-33 14 -27 -53 c-16 -28 -30 -56 -32 -62 -2 -5 -119 -242 -259 -525 -140
-283 -294 -595 -342 -693 l-88 -177 -6 72 c-4 40 -11 156 -16 258 -6 102 -15
253 -20 335 -6 83 -12 186 -15 230 -21 354 -47 780 -48 782 -1 0 -180 5 -398
9 l-396 7 -7 -34z m1046 -3453 c149 -62 203 -172 142 -294 -96 -193 -475 -347
-767 -311 -206 25 -317 107 -317 233 0 64 35 129 106 197 93 87 200 142 369
185 79 21 109 23 245 21 143 -3 160 -5 222 -31z m-1810 -324 c90 -32 157 -85
179 -140 15 -38 10 -114 -10 -158 -44 -96 -190 -205 -355 -263 -429 -151 -838
6 -710 274 59 124 271 253 484 294 30 6 64 13 75 15 11 3 79 3 150 2 99 -3
144 -9 187 -24z"/>
<path d="M26018 13270 c-70 -3 -131 -9 -134 -13 -3 -3 -10 -89 -14 -190 -5
-101 -11 -200 -14 -218 -3 -19 -8 -58 -11 -88 l-6 -54 133 7 c73 3 172 9 221
13 l87 6 0 -84 c0 -46 -7 -122 -15 -169 -36 -202 -57 -389 -65 -580 -6 -113
-14 -248 -20 -300 -18 -171 -59 -721 -66 -892 l-7 -167 29 -12 c20 -9 124 -14
322 -17 l292 -4 0 195 c0 241 15 439 37 485 9 19 40 53 70 76 74 58 423 248
428 233 2 -7 22 -115 45 -242 58 -333 150 -659 199 -708 16 -16 34 -20 103
-20 143 -2 649 16 645 22 -14 28 -30 73 -62 176 -20 66 -82 221 -137 345 -176
393 -288 686 -273 710 4 6 25 20 48 31 23 12 93 53 155 91 114 71 162 119 162
164 0 12 -16 87 -35 168 -27 110 -215 1024 -215 1043 0 6 -1774 0 -1902 -7z
m1400 -426 c2 -10 14 -46 27 -79 31 -80 75 -358 75 -471 0 -51 -2 -55 -37 -78
-21 -14 -153 -75 -293 -137 -338 -148 -372 -161 -384 -149 -12 12 -12 69 -1
498 l8 344 24 15 c41 27 132 43 308 54 94 6 188 14 210 18 51 11 59 9 63 -15z"/>
<path d="M21450 13253 c0 -5 -12 -100 -25 -213 -30 -237 -41 -499 -50 -1125
-3 -242 -13 -655 -21 -919 -8 -263 -13 -481 -11 -483 5 -5 564 15 656 23 l64
6 -6 501 c-9 821 -39 2028 -54 2165 l-5 52 -274 0 c-151 0 -274 -3 -274 -7z"/>
<path d="M20440 12703 c-236 -513 -661 -1384 -756 -1550 -26 -46 -52 -83 -59
-83 -40 0 -362 635 -779 1540 l-275 595 -303 8 c-272 6 -388 4 -388 -8 0 -22
874 -2142 1037 -2515 l98 -225 570 -3 570 -2 94 247 c52 137 151 381 219 543
199 475 323 780 432 1062 56 144 153 392 216 549 62 157 115 296 116 309 3 20
-4 25 -62 41 -54 16 -100 19 -276 19 l-211 0 -243 -527z"/>
<path d="M22446 13222 c-8 -14 -35 -316 -46 -517 -18 -343 -30 -996 -30 -1607
l0 -588 1551 0 1551 0 -4 198 c-3 161 -7 204 -21 237 -24 54 -53 82 -90 89
-126 22 -676 47 -1472 66 -242 5 -490 13 -551 16 l-112 6 -6 131 c-3 73 -8
185 -12 250 l-7 117 389 0 c382 0 1027 15 1194 28 l85 7 12 90 c6 50 12 147
12 217 l1 127 -37 11 c-104 29 -185 32 -608 27 -272 -4 -542 -2 -735 6 l-305
12 -6 35 c-4 19 -12 59 -18 89 -6 29 -11 127 -11 217 l0 164 234 0 c129 0 312
4 407 10 171 10 775 27 1344 39 l290 6 3 263 2 262 -1499 0 c-825 0 -1502 -3
-1505 -8z"/>
<path d="M13243 12748 c2 -260 9 -565 16 -678 7 -113 18 -388 24 -611 l12
-407 -50 -6 c-27 -3 -95 -6 -150 -6 -55 0 -235 -4 -400 -10 -590 -21 -1170
-38 -1177 -33 -5 2 -8 110 -8 239 l0 234 -157 0 c-163 0 -442 -21 -532 -41
-35 -7 -55 -18 -63 -32 -7 -14 -15 -108 -19 -247 -4 -124 -12 -254 -18 -290
-6 -36 -11 -131 -11 -212 l0 -148 1678 1 c1510 0 1800 3 1816 20 6 6 -19 261
-89 909 -24 228 -60 591 -80 805 -56 616 -88 893 -105 926 -5 8 -28 21 -52 29
-51 15 -272 29 -486 29 l-153 1 4 -472z"/>
<path d="M15875 13209 c-275 -4 -514 -10 -531 -14 -29 -6 -33 -13 -57 -93 -15
-48 -34 -121 -43 -162 -9 -41 -40 -158 -69 -260 -30 -102 -95 -349 -145 -550
-50 -200 -132 -502 -182 -670 -90 -306 -139 -501 -177 -705 -11 -60 -31 -143
-45 -184 -14 -41 -24 -76 -21 -79 13 -13 198 -21 520 -21 l361 -1 67 273 c36
149 74 305 83 345 l16 72 794 0 794 0 5 -22 c3 -13 21 -113 40 -223 61 -344
75 -393 122 -414 51 -23 237 -33 528 -28 160 2 298 8 308 12 15 6 17 14 12 44
-20 107 -421 1587 -495 1826 -32 105 -77 261 -100 348 -22 87 -52 193 -65 235
-13 42 -30 114 -38 160 -8 45 -16 84 -19 87 -7 7 -568 24 -878 27 -157 2 -510
0 -785 -3z m995 -504 c34 -17 30 -5 105 -325 66 -275 111 -494 121 -577 l7
-63 -44 0 c-24 0 -207 -7 -407 -16 -416 -18 -834 -16 -869 4 -17 9 -21 19 -18
40 67 374 173 873 189 889 3 4 129 15 279 25 149 10 324 22 387 27 179 13 219
12 250 -4z"/>
<path d="M11556 9982 c-3 -6 -11 -46 -16 -89 -6 -43 -17 -114 -25 -158 -8 -44
-37 -309 -65 -590 -27 -280 -63 -629 -80 -775 -32 -287 -50 -549 -38 -557 41
-24 852 -43 1942 -43 l758 0 -7 23 c-4 12 -11 92 -15 177 -5 85 -13 184 -19
220 -6 36 -15 120 -21 185 -10 108 -45 344 -52 350 -7 5 -338 64 -393 70 -33
3 -103 12 -155 20 -447 68 -432 58 -175 111 116 24 325 60 465 80 140 20 256
36 257 37 0 1 -7 45 -17 97 -11 52 -19 129 -19 170 -1 42 -8 102 -16 133 -8
32 -15 102 -15 155 0 65 -7 120 -20 167 -11 39 -20 100 -20 136 l0 67 -427 6
c-1029 15 -1821 18 -1827 8z m794 -497 c102 -8 202 -17 223 -20 34 -5 37 -3
37 21 0 25 0 26 63 20 34 -3 148 -8 252 -11 239 -7 285 -12 315 -35 l25 -19
-40 -17 c-57 -24 -500 -118 -700 -149 -93 -14 -201 -32 -240 -40 -157 -32
-257 -55 -266 -60 -19 -12 -10 160 12 231 32 105 32 105 87 99 26 -3 130 -12
232 -20z m-180 -916 c36 -5 110 -13 165 -18 103 -10 135 -17 147 -34 8 -13
393 -90 583 -118 143 -20 210 -43 210 -69 0 -38 -203 -54 -1082 -86 l-183 -7
0 134 c1 195 14 239 69 217 14 -6 55 -14 91 -19z"/>
<path d="M14423 9981 c-40 -3 -76 -10 -81 -16 -5 -5 -15 -96 -21 -200 -6 -105
-14 -201 -18 -214 -6 -24 -6 -24 63 -18 38 4 120 9 182 13 l112 7 0 -51 c0
-27 -9 -103 -20 -167 -30 -174 -50 -350 -50 -435 0 -41 -11 -201 -25 -355 -32
-369 -47 -616 -43 -689 3 -57 5 -60 33 -68 17 -4 129 -11 251 -15 l221 -6 6
244 c3 134 10 261 17 281 6 22 28 52 54 75 42 36 343 209 351 201 2 -2 20 -94
39 -205 37 -206 99 -437 139 -521 21 -44 25 -47 67 -52 25 -3 97 -2 160 2 63
3 177 7 253 7 75 1 137 3 137 6 0 3 -4 13 -9 23 -5 9 -21 58 -36 107 -15 50
-66 180 -115 291 -146 330 -227 544 -215 564 4 6 32 23 63 39 89 45 194 123
214 157 18 30 17 33 -20 195 -22 90 -68 309 -103 487 l-64 322 -735 -2 c-404
-1 -767 -4 -807 -7z m1163 -399 c22 -69 45 -201 59 -344 6 -63 5 -69 -18 -90
-21 -20 -123 -66 -470 -214 -71 -31 -78 -32 -85 -16 -8 20 -8 37 3 395 8 267
9 278 29 289 40 22 142 37 251 38 61 1 128 5 150 9 22 5 44 8 49 7 4 -1 19
-34 32 -74z"/>
<path d="M23300 9979 c0 -67 -98 -1152 -129 -1434 -55 -492 -75 -725 -64 -736
20 -20 128 -29 409 -36 l291 -6 6 44 c7 49 21 261 37 564 6 110 15 232 20 270
5 39 11 151 15 250 3 99 8 207 11 240 l6 59 32 -39 c17 -22 99 -114 181 -205
204 -224 454 -514 549 -635 43 -55 133 -154 200 -220 67 -66 163 -166 215
-223 l94 -102 373 0 c206 0 374 3 374 8 0 4 -5 27 -11 51 -5 24 -23 174 -39
335 -17 160 -44 401 -60 536 -16 135 -41 360 -55 500 -37 372 -64 594 -82 688
l-16 82 -298 0 -299 0 0 -22 c0 -13 11 -185 25 -383 14 -198 30 -445 36 -550
5 -104 14 -226 19 -270 5 -44 9 -127 9 -185 l0 -105 -32 39 c-18 22 -75 85
-128 140 -53 56 -124 135 -157 176 -34 41 -81 100 -106 130 -195 239 -636 800
-724 921 l-77 106 -120 6 c-341 18 -505 20 -505 6z"/>
<path d="M26256 9958 c-3 -18 -14 -148 -25 -288 -22 -281 -27 -428 -41 -1165
-6 -275 -13 -553 -16 -617 l-7 -118 831 0 832 0 0 158 c0 86 -7 267 -15 402
-8 135 -17 349 -20 475 -6 251 -42 1048 -51 1133 l-5 52 -739 0 -739 0 -5 -32z
m1003 -423 l24 -8 -6 -506 c-4 -278 -10 -567 -13 -643 l-7 -136 -26 -6 c-14
-3 -140 -9 -278 -13 l-253 -6 0 279 c0 374 -21 843 -45 1022 l-4 34 292 -5
c161 -2 303 -8 316 -12z"/>
<path d="M16612 9768 c-26 -242 -30 -346 -42 -1058 -5 -300 -13 -632 -16 -739
l-7 -194 244 7 c134 4 263 9 287 13 l42 5 0 262 c1 313 -16 1136 -32 1584
l-11 322 -221 0 -222 0 -22 -202z"/>
<path d="M17590 9928 c0 -24 -7 -88 -15 -143 -25 -177 -74 -636 -81 -756 -9
-149 -5 -165 44 -178 39 -11 315 -57 1137 -191 275 -45 527 -88 560 -96 33 -8
77 -20 98 -25 l37 -10 0 -113 0 -113 -57 -7 c-115 -14 -326 -26 -708 -41 -902
-34 -1129 -49 -1160 -75 -19 -16 -23 -42 -35 -213 -6 -82 -13 -160 -16 -173
l-6 -24 1343 2 1344 3 3 41 c2 22 -8 91 -22 153 -16 70 -30 174 -37 274 -5 89
-20 274 -32 411 l-22 249 -100 18 c-55 9 -183 33 -285 53 -102 19 -264 46
-360 60 -246 37 -1064 177 -1072 185 -7 7 -30 252 -24 258 4 4 1608 72 1712
73 l40 0 -18 178 c-10 97 -20 192 -23 210 l-6 32 -1119 0 -1120 0 0 -42z"/>
<path d="M20385 9938 c-7 -23 -25 -230 -35 -408 -12 -212 -35 -1724 -26 -1745
5 -13 153 -15 1246 -15 l1240 0 0 118 c0 194 -24 281 -84 302 -58 21 -558 44
-1166 55 -168 3 -360 8 -426 11 l-121 6 -7 99 c-3 54 -9 143 -12 198 l-7 98
479 7 c264 3 563 9 666 12 l186 7 6 26 c4 14 9 94 13 177 l6 151 -69 17 c-60
15 -126 16 -529 14 -253 -2 -526 1 -606 5 l-145 9 -12 58 c-7 31 -15 121 -19
199 l-6 141 152 0 c84 0 228 5 319 10 157 10 672 26 1150 37 l212 5 0 209 0
209 -1200 0 c-952 0 -1201 -3 -1205 -12z"/>
<path d="M7090 8342 c0 -5 40 -113 89 -238 49 -126 91 -238 95 -249 5 -18 72
-37 523 -149 285 -71 658 -164 828 -206 217 -55 312 -74 316 -66 4 6 9 45 13
86 4 41 13 134 21 205 8 72 21 200 30 285 8 85 18 173 21 196 l5 41 -108 6
c-185 11 -678 37 -1478 77 -110 5 -235 13 -277 16 -47 3 -78 2 -78 -4z"/>
</g>
</svg>
